<svg fill="#3f3f46" xmlns="http://www.w3.org/2000/svg" viewBox="0 0 100 100" x="0px" y="0px"><path d="M63.15,20.96c-16-.34-29.31,12.43-29.64,28.44-.33,16.01,12.43,29.31,28.44,29.64,.2,0,.41,0,.61,0,15.74,0,28.71-12.64,29.03-28.45h0c.33-16.01-12.43-29.31-28.44-29.64Zm-.59,55.09c-.18,0-.37,0-.55,0-14.36-.3-25.8-12.22-25.5-26.58,.29-14.18,11.92-25.51,26.03-25.51,.18,0,.37,0,.55,0,14.36,.3,25.8,12.22,25.5,26.58-.29,14.18-11.92,25.51-26.03,25.51Z"/><path d="M62.55,26.1c-13.18,0-23.9,10.72-23.9,23.9,0,.83,.67,1.5,1.5,1.5h4.3c.83,0,1.5-.67,1.5-1.5,0-6.86,5.58-12.44,12.44-12.44,4.75,0,8.89,2.68,10.98,6.61l-7.2,1.56c-.41,.03-.82,.13-1.21,.28-2.2,.87-3.28,3.37-2.4,5.57,.67,1.68,2.28,2.71,3.99,2.71,.53,0,1.06-.1,1.58-.3,.39-.15,.75-.36,1.07-.62l5.62-3.39s0,.01,0,.02c0,.83,.67,1.5,1.5,1.5h12.62c.83,0,1.5-.67,1.5-1.5,0-13.18-10.72-23.9-23.9-23.9Zm.81,24.9c-.09,.08-.21,.15-.33,.2h0c-.66,.26-1.41-.06-1.67-.72-.26-.66,.06-1.41,.72-1.67,.12-.05,.25-.08,.38-.08,.08,0,.17-.01,.25-.03l6.97-1.51-6.11,3.68c-.07,.04-.14,.09-.2,.15Z"/><path d="M74.11,65.37c-.45-.7-1.37-.91-2.07-.46-.7,.44-.9,1.37-.46,2.07l1.9,2.99c.29,.45,.77,.69,1.27,.69,.28,0,.55-.08,.8-.23,.7-.44,.9-1.37,.46-2.07l-1.9-2.99Z"/><path d="M83.37,59.2l-3.14-1.64c-.73-.38-1.64-.1-2.02,.63s-.1,1.64,.63,2.02l3.14,1.64c.22,.12,.46,.17,.69,.17,.54,0,1.06-.29,1.33-.81,.38-.73,.1-1.64-.63-2.02Z"/><path d="M62.55,67.68c-.83,0-1.5,.67-1.5,1.5v3.54c0,.83,.67,1.5,1.5,1.5s1.5-.67,1.5-1.5v-3.54c0-.83-.67-1.5-1.5-1.5Z"/><path d="M53.06,64.91c-.7-.44-1.63-.24-2.07,.46l-1.9,2.99c-.44,.7-.24,1.63,.46,2.07,.25,.16,.53,.23,.8,.23,.5,0,.98-.25,1.27-.69l1.9-2.99c.44-.7,.24-1.63-.46-2.07Z"/><path d="M44.86,57.56l-3.14,1.64c-.73,.38-1.02,1.29-.63,2.02,.27,.51,.79,.81,1.33,.81,.23,0,.47-.06,.69-.17l3.14-1.64c.73-.38,1.02-1.29,.63-2.02s-1.29-1.02-2.02-.63Z"/><path d="M36.51,30c0-.83-.67-1.5-1.5-1.5H10c-.83,0-1.5,.67-1.5,1.5s.67,1.5,1.5,1.5h25.01c.83,0,1.5-.67,1.5-1.5Z"/><path d="M10,71.5h25.01c.83,0,1.5-.67,1.5-1.5s-.67-1.5-1.5-1.5H10c-.83,0-1.5,.67-1.5,1.5s.67,1.5,1.5,1.5Z"/><path d="M30.68,38.5H15.17c-.83,0-1.5,.67-1.5,1.5s.67,1.5,1.5,1.5h15.51c.83,0,1.5-.67,1.5-1.5s-.67-1.5-1.5-1.5Z"/><path d="M13.67,59.71c0,.83,.67,1.5,1.5,1.5h15.51c.83,0,1.5-.67,1.5-1.5s-.67-1.5-1.5-1.5H15.17c-.83,0-1.5,.67-1.5,1.5Z"/><path d="M25.51,48.5H10c-.83,0-1.5,.67-1.5,1.5s.67,1.5,1.5,1.5h15.51c.83,0,1.5-.67,1.5-1.5s-.67-1.5-1.5-1.5Z"/></svg>