<svg fill="#3f3f46" xmlns="http://www.w3.org/2000/svg" xmlns:xlink="http://www.w3.org/1999/xlink" version="1.1" x="0px" y="0px" viewBox="0 0 1000 1000" style="enable-background:new 0 0 1000 1000;" xml:space="preserve"><g><path d="M982.6386719,678.0922241c-35.0324097-67.5758057-64.3439331-138.0847778-98.0336914-206.3792725   c-10.1060181-19.168457-7.7502441-37.713501-3.1207275-57.4555054c3.031189-16.6459351-1.4277344-30.7183228-15.6248779-40.3807373   c-12.2304077-7.881958-25.1079102-15.1289673-38.3591919-21.2352905   c33.734375,3.1984253,66.8934326,5.8944702,98.8948975-11.7288208   c-15.4544067-1.2453003-44.0272217-4.8911133-44.1294556-5.5710449   c26.7515869-4.47229,49.4021606-16.0466919,66.5144653-37.3208618   c-13.5673218,3.0721436-27.9066162,6.3823242-41.6103516,5.7889404   c-22.3344116-1.7217407-38.9317017-15.5470581-53.7174683-31.1144409   c-18.2370605-19.2008057-36.024231-38.8336182-53.6922607-58.5604858   c-1.3843384-1.5455322-1.0326538-5.5181885-0.2614746-7.9782715c4.4876099-14.3146973,11.0634155-28.2046509,13.6933594-42.821167   c4.6432495-25.8067627,3.7261963-52.6567383,15.6091919-77.2855225   c-31.2640381,22.1911011-64.2042847,45.0870361-80.0285645,81.1763916   c-4.1743164,10.9515381-10.6713257,10.9381714-20.8237305,10.5007935   c-12.2947388-37.2444458-8.9703979-73.8961792,3.3665771-111.5841064   c-36.6645508,22.000061-68.260437,47.4527588-89.8043823,84.1972046   c-57.7884521-54.9994507-175.3346558-69.8643799-234.1140747-33.2138672   c44.1010132-5.9320068,80.8969116,10.9220581,100.7086792,41.2294312   c-97.8046265-26.5424805-215.3985596-9.699707-280.8808594,74.0511475   c1.401062,0.2407837,42.8493042-19.2687988,84.1326294-19.2171631c27.053894,0.0338745,54.4439087,14.2391968,69.0254517,27.756897   c-107.3275757-16.2230835-221.1274414,29.9293213-280.8308716,120.8905029   c57.9296875-42.5001831,124.0695801-44.7432861,191.5721436-40.4642944   c-129.9000244,22.0657349-310.423645,99.0167847-274.6751709,260.5610352   c0.6798096-0.0148926,1.3595581-0.0297241,2.0393066-0.0446777   C37.213562,468.3913574,158.838562,415.4302979,258.1010742,388.0915527   C114.9611206,456.0374756-47.2996216,625.503418,44.1217651,791.503418   c-0.5682983-15.5172729-2.7433472-31.7165527-1.2975464-47.5859985   c2.1682129-27.0101929,15.2106934-74.4658813,36.4942017-86.1544189   c-19.3213501,84.1773071,34.303772,163.263916,95.7200928,215.4884644   c-83.5757446-118.0112305-74.2980957-281.571228,19.3642578-390.9014282   c-62.1842651,105.9958496-66.6411743,247.8683472,9.8052368,348.5525513   c29.500061,40.1586304,71.053772,69.585022,120.4025269,79.5641479   c-64.1757812-44.6860352-104.7358398-102.4065552-110.1868286-181.6311035   c19.8449097,41.552063,46.862854,76.5773926,88.0042725,99.1378784   c-25.5706177-31.7655029-48.7427979-65.3027954-48.4127808-108.0634766   c-0.0283203-4.9915771-1.4830933-8.1464844-5.0744629-11.5400391   c-77.9042969-73.3447266-51.4523926-184.8017578,15.6207886-255.5238647   c0.7472534,0.5529175-35.5730591,72.4942017-41.3035278,111.8925171   c-8.7791138,60.3585815,5.5150146,122.4046021,54.1665649,165.2669067   c15.9277954,14.4713135,40.8883057,27.0516357,57.9570312,29.0891113   c-48.1731567-35.2822266-80.9769287-94.7254028-71.414917-155.0801392   c5.4785767,21.6261597,16.0083618,40.0910034,33.1618652,56.4483032   c-13.6078491-55.4776611-8.6083984-106.5645752,24.3272095-153.0418701   c-20.5255127,64.3508301-5.2325439,133.6264038,45.5824585,180.5597534   c-9.3706665-136.0830078,47.4921265-267.8347778,166.6400146-338.7341919   c2.9666748-1.7977905,5.5963745-5.6102905,6.5706177-9.0032959   c11.8532104-44.2940063,41.9957275-82.9802856,84.8914795-100.9018555   c10.7234497,22.6710815,37.8929443,35.3215942,59.0375977,21.8762817   c9.5267944-5.866333,18.7196655-4.7775269,26.0217285,4.1049194c4.8369751,5.8839111,9.0827026,12.4021606,12.6888428,19.1217041   c10.4291382,19.4334717,23.451416,36.3729248,42.1182251,48.7417603   c8.3616943,5.5404663,16.1227417,12.0430908,23.8405762,18.4871826   c13.0056763,10.8594971,23.682312,23.5496216,28.6766357,40.1378174   c18.3149414,60.8323975,47.3865356,117.0010986,75.3673096,173.6217041   c21.8981934,42.8034668,43.9228516,84.5701294,49.3114624,133.4697876   c-5.9002686-7.34729-9.600647-13.6488037-14.8435669-18.1540527   c-18.5722046-16.6994629-40.8754272-2.0328979-45.3380127,19.6558838   c-5.8276978,21.2855835,7.3353882,41.1378174,10.0552979,61.7954712   c3.5681152,26.4127808-28.9785767,30.670105-37.7131348,9.0797729c-5.1174316-10.7113647-9.484375-21.815918-13.6010132-32.9630737   c-6.690918-18.1182251-17.2177124-32.8684082-32.9655762-44.5754395   c-19.3156128-14.359314-38.2963867-29.3609619-55.9642944-45.6644897   c-8.8483887-8.1650391-16.2651978-19.0473633-21.1044922-30.1112061   c-6.8082275-15.5653687,2.6866455-28.6206665,19.6247559-30.1119995   c19.1420288-1.6854248,34.5911865,6.6564331,47.9130249,19.1016235c9.3305664,8.7164917,17.536377,18.637146,26.6594849,28.4671631   c-4.404541-21.260437-15.600769-39.5750122-29.0804443-56.1564331   c-21.5378418-26.1691895-45.7884521-55.9483032-54.9718628-87.2550659   c0.6359253,50.3059082-12.3933105,101.2088623-68.196167,113.2026978   c-35.3040771,7.8966675-61.8948364-8.4233398-81.6531982-36.427124   c-41.8010864-61.8800659-25.4599609-150.1460571,24.3626709-202.8242798   c-42.637207,22.5377197-68.7905273,63.2483521-74.5562134,110.4528809   c-2.411499,20.0942993-8.9000244,36.8435059-19.6590576,53.8039551   c-73.8280029,118.8203735-89.4804077,274.1872559-34.7328491,403.6383057   c-11.3482666-120.7131958,7.8932495-245.5557251,71.230957-350.3146362   c25.1254883,37.3544312,57.9503174,58.4903564,102.3317871,59.9470215   c3.0863037,0.1013184,6.6864014,1.3825684,9.0702515,3.3186035c15.6110229,12.6787109,30.5633545,26.1940918,46.4811401,38.4630127   c19.9046021,15.3421021,40.7727661,29.4306641,60.7644653,44.6646118   c14.5979614,11.1240845,22.2666016,25.741333,19.7997437,44.9025269   c-2.8027954,21.7718506,4.7796631,36.7348633,30.9249268,45.9279175   c16.1773682,5.6884155,32.8438721,7.5123901,48.1174316-2.3493652c5.7736816-3.7280273,11.0040283-5.9151611,17.9492798-6.3006592   c50.6417847-1.0551758,37.0404053-32.6238403,65.5984497-63.3371582   C981.53125,728.272644,996.8980713,709.3900757,982.6386719,678.0922241z M674.4104004,210.5894165   c-0.0404053,8.288208,0.1945801,17.0761719-2.3853149,24.7321167c-3.5261841,10.4641113-16.6960449,12.0981445-22.6847534,2.836792   c-21.5799561-38.548645,10.0008545-91.0799561,38.9279175-118.5187378   c-5.0635986,15.2885132-11.6816406,30.3250732-14.2242432,46.0218506   C671.6841431,180.2290649,674.4836426,195.5845337,674.4104004,210.5894165z M835.7507324,794.5439453   c-16.746521-23.8220825-14.97229-60.7649536-14.2392578-60.9400635   c8.7424316,23.3687744,7.2802124,51.3178101,30.9844971,67.9709473   C851.8035889,802.3919067,840.7750854,801.6911621,835.7507324,794.5439453z"/><path d="M762.494751,446.8557129c13.0198975,0.0957031,25.7473145,2.5894775,38.8121948,11.5236206   c-0.8220215-15.2114868-0.651123-28.7022705-2.4764404-41.9161377   c-8.1920166-51.666626-69.772644-34.2491455-106.7225342-29.4609985   C712.7304688,415.0249023,722.4462891,447.5106812,762.494751,446.8557129z M746.8519897,402.9185791   c3.3933105,3.7426758-0.3695679,7.3460693-1.8699341,7.8809814c-13.112854,4.6751099-21.5494385-6.223999-31.0897827-12.5799561   C714.3202515,397.5235596,738.4396973,393.6401367,746.8519897,402.9185791z"/></g></svg>