<svg xmlns="http://www.w3.org/2000/svg" xmlns:xlink="http://www.w3.org/1999/xlink" xmlns:xodm="http://www.corel.com/coreldraw/odm/2003" xml:space="preserve" version="1.1" style="shape-rendering:geometricPrecision;text-rendering:geometricPrecision;image-rendering:optimizeQuality;" viewBox="0 0 1388.88 1388.88" x="0px" y="0px" fill-rule="evenodd" clip-rule="evenodd"><defs><style type="text/css">
   
    .fil0 {fill:#242429;fill-rule:nonzero}
   
  </style></defs><g><path class="fil0" d="M643.35 859.2c3.76,0 6.81,3.05 6.81,6.81 0,3.76 -3.05,6.81 -6.81,6.81 -49.25,0 -93.86,-19.97 -126.13,-52.25 -32.28,-32.28 -52.24,-76.88 -52.24,-126.13 0,-3.76 3.05,-6.81 6.81,-6.81 3.76,0 6.81,3.05 6.81,6.81 0,45.5 18.44,86.69 48.25,116.5 29.81,29.81 71.01,48.26 116.51,48.26zm-567.11 -516.48c-3.96,6.37 -12.35,8.33 -18.72,4.37 -6.37,-3.96 -8.33,-12.35 -4.37,-18.72 62.34,-100.3 149.58,-183.56 253.09,-241.14 99.88,-55.56 214.84,-87.22 337.11,-87.22 191.76,0 365.37,77.73 491.04,203.4 125.67,125.67 203.4,299.28 203.4,491.04 0,191.76 -77.74,365.37 -203.4,491.04 -125.67,125.67 -299.28,203.4 -491.04,203.4 -57.76,0 -113.95,-7.09 -167.74,-20.43 -55.48,-13.76 -108.27,-34.16 -157.45,-60.27 -6.64,-3.52 -9.17,-11.77 -5.64,-18.41 3.52,-6.64 11.77,-9.17 18.41,-5.64 47.37,25.15 98.06,44.75 151.17,57.93 51.56,12.79 105.57,19.58 161.25,19.58 184.24,0 351.05,-74.68 471.79,-195.42 120.73,-120.73 195.42,-287.54 195.42,-471.79 0,-184.24 -74.69,-351.06 -195.42,-471.79 -120.74,-120.74 -287.54,-195.42 -471.79,-195.42 -117.61,0 -228.06,30.38 -323.91,83.7 -99.42,55.31 -183.25,135.34 -243.19,231.78zm141.3 -101.08c-5.22,4.91 -13.43,4.66 -18.33,-0.56 -4.91,-5.21 -4.65,-13.43 0.56,-18.33 58.99,-55.5 128.46,-100.07 205.11,-130.46 73.89,-29.28 154.35,-45.38 238.46,-45.38 178.8,0 340.69,72.48 457.87,189.66 117.18,117.18 189.66,279.06 189.66,457.87 0,178.81 -72.48,340.69 -189.66,457.87 -117.17,117.18 -279.06,189.66 -457.87,189.66 -91.33,0 -178.35,-18.98 -257.3,-53.2 -81.99,-35.54 -155.15,-87.51 -215.3,-151.71l-24.72 -25.61c-4.96,-5.16 -4.8,-13.37 0.35,-18.33 5.16,-4.96 13.37,-4.8 18.33,0.35l24.93 25.82c57.83,61.72 128.06,111.64 206.67,145.71 75.62,32.79 159.17,50.97 247.04,50.97 171.63,0 327.02,-69.57 439.49,-182.04 112.47,-112.46 182.04,-267.86 182.04,-439.49 0,-171.63 -69.57,-327.02 -182.04,-439.49 -112.47,-112.47 -267.86,-182.04 -439.49,-182.04 -80.93,0 -158.17,15.41 -228.91,43.45 -73.53,29.15 -140.21,71.94 -196.89,125.28zm139.46 -46.93c-5.93,3.39 -13.49,1.33 -16.88,-4.6 -3.39,-5.93 -1.33,-13.49 4.6,-16.88 44.62,-25.62 92.94,-45.7 143.95,-59.26 49.41,-13.13 101.27,-20.14 154.68,-20.14 165.85,0 316,67.23 424.69,175.92 108.69,108.69 175.92,258.85 175.92,424.69 0,165.85 -67.23,316.01 -175.92,424.69 -108.69,108.69 -258.85,175.92 -424.69,175.92 -118.91,0 -229.8,-34.61 -323.14,-94.31 -96.35,-61.63 -173.95,-149.98 -222.3,-254.57 -2.86,-6.19 -0.15,-13.54 6.04,-16.4 6.19,-2.85 13.54,-0.15 16.4,6.05 46.39,100.34 120.77,185.07 213.11,244.12 89.42,57.19 195.75,90.34 309.89,90.34 159.02,0 302.98,-64.45 407.19,-168.66 104.21,-104.2 168.66,-248.17 168.66,-407.19 0,-159.02 -64.45,-302.98 -168.66,-407.19 -104.21,-104.21 -248.17,-168.66 -407.19,-168.66 -51.37,0 -101.12,6.7 -148.39,19.27 -48.78,12.96 -95.07,32.22 -137.95,56.84zm160.31 -15.41c-6.29,1.52 -12.63,-2.35 -14.15,-8.64 -1.52,-6.29 2.35,-12.63 8.64,-14.15 21.39,-5.21 43.16,-9.18 65.17,-11.81 21.81,-2.61 43.97,-3.95 66.37,-3.95 152.89,0 291.32,61.98 391.52,162.18 100.2,100.2 162.18,238.63 162.18,391.52 0,152.89 -61.98,291.32 -162.18,391.52 -100.2,100.2 -238.63,162.18 -391.52,162.18 -132.27,0 -253.75,-46.43 -349.02,-123.87 -97,-78.86 -166.81,-189.93 -193.13,-316.94 -1.3,-6.34 2.8,-12.54 9.14,-13.83 6.34,-1.3 12.54,2.8 13.83,9.14 25.19,121.56 92.04,227.9 184.94,303.43 91.17,74.11 207.49,118.55 334.22,118.55 146.41,0 278.95,-59.35 374.89,-155.29 95.94,-95.93 155.28,-228.48 155.28,-374.89 0,-146.41 -59.34,-278.96 -155.28,-374.89 -95.94,-95.94 -228.48,-155.29 -374.89,-155.29 -21.59,0 -42.83,1.28 -63.62,3.77 -21.35,2.55 -42.19,6.33 -62.41,11.26zm175.57 33.11c-6.1,-0.6 -10.56,-6.04 -9.96,-12.14 0.59,-6.1 6.04,-10.57 12.14,-9.97 128.45,13.03 242.72,74.01 324.6,164.74 81.09,89.85 130.46,208.87 130.46,339.4 0,139.94 -56.73,266.64 -148.44,358.35 -91.71,91.71 -218.41,148.44 -358.35,148.44 -4.69,0 -10.17,-0.1 -16.48,-0.3 -136.61,-4.35 -259.18,-62.65 -347.57,-153.98 -88.41,-91.36 -142.69,-215.79 -142.69,-352.39l-0.05 0c0,-4.63 0.1,-10.12 0.31,-16.49 0.19,-6.13 5.32,-10.94 11.44,-10.75 6.12,0.19 10.94,5.32 10.75,11.44 -0.14,4.43 -0.21,9.71 -0.21,15.79l-0.05 0c0,130.59 51.89,249.56 136.42,336.9 84.56,87.37 201.76,143.12 332.35,147.28 4.39,0.14 9.67,0.21 15.78,0.21 133.79,0 254.92,-54.23 342.59,-141.91 87.68,-87.68 141.91,-208.8 141.91,-342.59 0,-124.83 -47.2,-238.63 -124.71,-324.52 -78.3,-86.76 -187.52,-145.07 -310.24,-157.52zm139.23 85.76c-5.24,-2.49 -7.47,-8.77 -4.98,-14.02 2.49,-5.24 8.77,-7.47 14.02,-4.97 78.71,37.56 145.09,96.88 191.35,170.19 44.78,70.96 70.7,155.02 70.7,245.06 0,126.99 -51.47,241.96 -134.69,325.17 -83.22,83.22 -198.19,134.69 -325.17,134.69 -126.99,0 -241.96,-51.48 -325.17,-134.69 -83.22,-83.22 -134.69,-198.19 -134.69,-325.17 0,-19.8 1.29,-39.52 3.8,-59.06 2.53,-19.75 6.31,-39.06 11.23,-57.85 1.45,-5.61 7.18,-8.97 12.78,-7.52 5.6,1.45 8.97,7.18 7.52,12.78 -4.72,18.02 -8.33,36.46 -10.74,55.22 -2.34,18.27 -3.55,37.1 -3.55,56.43 0,121.18 49.11,230.89 128.52,310.3 79.41,79.41 189.11,128.52 310.3,128.52 121.18,0 230.89,-49.12 310.3,-128.52 79.41,-79.41 128.52,-189.12 128.52,-310.3 0,-86.01 -24.71,-166.22 -67.41,-233.89 -44.11,-69.91 -107.47,-126.52 -182.63,-162.38zm83.43 112.56c-3.93,-3.78 -4.05,-10.04 -0.27,-13.96 3.78,-3.93 10.04,-4.05 13.96,-0.27 39.89,38.28 72.12,84.52 94.13,136.13 21.2,49.72 32.94,104.43 32.94,161.81 0,114.03 -46.23,217.27 -120.96,292 -74.72,74.73 -177.97,120.95 -292,120.95 -114.03,0 -217.28,-46.22 -292,-120.95 -74.73,-74.73 -120.95,-177.97 -120.95,-292 0,-32.96 3.87,-65.04 11.17,-95.79 7.51,-31.62 18.69,-61.88 33.06,-90.3 2.45,-4.87 8.4,-6.82 13.27,-4.37 4.87,2.45 6.83,8.4 4.37,13.27 -13.63,26.96 -24.26,55.77 -31.43,85.96 -6.95,29.26 -10.63,59.82 -10.63,91.23 0,108.56 44.01,206.86 115.15,278 71.14,71.14 169.43,115.15 278,115.15 108.56,0 206.86,-44.01 277.99,-115.15 71.14,-71.14 115.15,-169.43 115.15,-278 0,-54.72 -11.16,-106.8 -31.31,-154.07 -20.96,-49.16 -51.65,-93.18 -89.63,-129.64zm45.19 142.01c-2.08,-4.66 0.02,-10.14 4.68,-12.22 4.67,-2.08 10.14,0.02 12.22,4.68 10.35,23.14 18.37,47.52 23.74,72.81 5.25,24.71 8.01,50.28 8.01,76.43 0,101.07 -40.97,192.59 -107.21,258.83 -66.24,66.24 -157.76,107.21 -258.83,107.21 -101.07,0 -192.59,-40.97 -258.83,-107.21 -66.24,-66.24 -107.21,-157.75 -107.21,-258.83 0,-40.39 6.59,-79.34 18.74,-115.81 12.58,-37.75 31.14,-72.75 54.53,-103.87l3.15 -4.11c3.1,-4.06 8.92,-4.84 12.98,-1.74 4.06,3.1 4.84,8.92 1.74,12.98l-3.11 4.04c-22.21,29.55 -39.81,62.76 -51.73,98.51 -11.5,34.49 -17.72,71.48 -17.72,110 0,95.95 38.89,182.82 101.77,245.7 62.87,62.87 149.74,101.77 245.7,101.77 95.95,0 182.82,-38.89 245.69,-101.77 62.88,-62.88 101.77,-149.74 101.77,-245.7 0,-24.95 -2.61,-49.24 -7.57,-72.59 -5.12,-24.1 -12.72,-47.23 -22.5,-69.11zm-15.66 149.36c0.11,-4.76 4.07,-8.54 8.83,-8.43 4.76,0.11 8.54,4.07 8.43,8.83 -2.15,86.37 -38.61,164.22 -96.26,220.43 -57.51,56.07 -136.1,90.62 -222.73,90.62 -88.12,0 -167.9,-35.72 -225.65,-93.47 -57.75,-57.75 -93.47,-137.54 -93.47,-225.65 0,-46.76 10.08,-91.2 28.18,-131.26 18.8,-41.61 46.26,-78.46 80.05,-108.24 3.59,-3.16 9.06,-2.81 12.22,0.78 3.16,3.59 2.81,9.06 -0.78,12.22 -31.99,28.19 -57.96,63.03 -75.72,102.35 -17.1,37.84 -26.62,79.87 -26.62,124.15 0,83.34 33.78,158.79 88.39,213.4 54.61,54.61 130.06,88.39 213.4,88.39 81.97,0 156.3,-32.67 210.68,-85.68 54.53,-53.17 89.02,-126.79 91.05,-208.45zm-66.05 92.81c1.73,-4.08 6.45,-5.98 10.53,-4.25 4.08,1.73 5.98,6.45 4.24,10.53 -21.07,49.38 -56.33,91.26 -100.63,120.52 -42.99,28.4 -94.5,44.94 -149.83,44.94 -75.17,0 -143.23,-30.47 -192.48,-79.73 -49.25,-49.26 -79.72,-117.31 -79.72,-192.48 0,-49.67 13.33,-96.27 36.61,-136.39 24.1,-41.55 58.87,-76.13 100.54,-99.99 3.85,-2.2 8.76,-0.87 10.97,2.99 2.2,3.85 0.87,8.76 -2.99,10.97 -39.23,22.47 -71.96,55.01 -94.63,94.08 -21.88,37.7 -34.41,81.56 -34.41,128.35 0,70.72 28.67,134.76 75.01,181.1 46.34,46.34 110.38,75.01 181.1,75.01 52.11,0 100.57,-15.54 140.96,-42.23 41.71,-27.54 74.89,-66.96 94.71,-113.41zm-89.11 50.56c2.93,-2.85 7.63,-2.78 10.48,0.15 2.85,2.93 2.78,7.63 -0.15,10.48 -20.68,20.07 -45.19,36.22 -72.3,47.21 -26.13,10.59 -54.69,16.43 -84.6,16.43 -62.21,0 -118.54,-25.22 -159.31,-65.98 -40.77,-40.77 -65.99,-97.09 -65.99,-159.31 0,-21.95 3.17,-43.23 9.07,-63.4 6.1,-20.84 15.12,-40.41 26.56,-58.22 2.21,-3.44 6.8,-4.44 10.24,-2.24 3.44,2.21 4.44,6.8 2.24,10.24 -10.71,16.67 -19.14,34.94 -24.82,54.34 -5.48,18.74 -8.43,38.64 -8.43,59.28 0,58.11 23.56,110.72 61.63,148.8 38.07,38.07 90.69,61.63 148.8,61.63 27.96,0 54.65,-5.45 79.02,-15.33 25.36,-10.28 48.26,-25.35 67.54,-44.07z"/></g></svg>