<svg fill="#3f3f46" xmlns="http://www.w3.org/2000/svg" version="1.1" viewBox="-5.0 -10.0 110.0 120.0">
 <path d="m50 18.707c0.81641 0 1.625 0.023438 2.4258 0.070313v-7.2852h-4.8555v7.2852c0.80469-0.046875 1.6133-0.070313 2.4297-0.070313zm27.617 4.2773-4.0781 7.0625c1.0117 0.82031 1.9805 1.6953 2.9023 2.6133 6.7656 6.7656 10.953 16.117 10.953 26.445s-4.1875 19.676-10.953 26.441-16.117 10.953-26.441 10.953-19.676-4.1875-26.441-10.953-10.953-16.117-10.953-26.441c0-10.328 4.1875-19.676 10.953-26.445 0.98438-0.98438 2.0273-1.9141 3.1172-2.7891l-3.9766-6.8867-4.2344 2.4453c-0.71484 0.41406-1.6328 0.17187-2.043-0.54297-0.41406-0.71484-0.17188-1.6328 0.54297-2.043l11.059-6.3867c0.71484-0.41406 1.6328-0.17188 2.043 0.54297 0.41406 0.71484 0.17188 1.6328-0.54297 2.043l-4.2344 2.4453 3.8086 6.5977c5.9688-4.0312 13.16-6.3828 20.902-6.3828 7.8398 0 15.121 2.4141 21.133 6.5391l3.8984-6.7539-4.2383-2.4453c-0.71484-0.41406-0.95703-1.3281-0.54297-2.043s1.3281-0.95703 2.043-0.54297l11.059 6.3867c0.71484 0.41406 0.95703 1.3281 0.54297 2.043-0.41406 0.71484-1.3281 0.95703-2.043 0.54297zm-30.094 40.879c0.78125 0.4375 1.6836 0.68359 2.6445 0.68359 1.4492 0 2.7773-0.57422 3.7539-1.5078l0.09375-0.085937c0.98438-0.98438 1.5938-2.3477 1.5938-3.8516 0-1.4492-0.57422-2.7773-1.5078-3.7539l-0.085937-0.09375c-0.64453-0.64453-1.4492-1.1289-2.3516-1.3867v-12.336c0-0.82812-0.67187-1.5-1.5-1.5-0.82812 0-1.5 0.67188-1.5 1.5v12.336c-0.90234 0.25781-1.707 0.74219-2.3477 1.3906-0.98828 0.98438-1.5977 2.3477-1.5977 3.8438 0 0.96094 0.25 1.8633 0.6875 2.6484l-5.4062 5.4023c-0.58594 0.58203-0.58984 1.5312-0.007812 2.1172 0.58203 0.58594 1.5312 0.58984 2.1172 0.007813zm4.375-6.4883c0.46875 0.49219 0.71875 1.082 0.71875 1.7266 0 0.67578-0.27344 1.2891-0.74609 1.7617-0.46484 0.4375-1.0508 0.68359-1.6992 0.68359-0.67578 0-1.2891-0.27344-1.7305-0.71875-0.44141-0.44141-0.71875-1.0547-0.71875-1.7305 0-0.67969 0.27344-1.2891 0.71875-1.7266 0.44141-0.44141 1.0547-0.71875 1.7305-0.71875s1.2891 0.27344 1.7305 0.71875zm15.492 21.246 2.3711 2.3672c-4.8828 4.4141-11.25 7.2188-18.262 7.5703v-3.9062c0-0.82812-0.67188-1.5-1.5-1.5s-1.5 0.67188-1.5 1.5v3.9062c-7.0117-0.35156-13.383-3.1562-18.266-7.5703l2.3711-2.3672c0.58594-0.58203 0.58984-1.5312 0.007812-2.1172-0.58203-0.58594-1.5312-0.58984-2.1172-0.007812l-2.375 2.3711c-4.4141-4.8828-7.2148-11.25-7.5664-18.262h3.9062c0.82812 0 1.5-0.67188 1.5-1.5s-0.67188-1.5-1.5-1.5h-3.9062c0.35156-7.0117 3.1562-13.383 7.5703-18.266l2.3672 2.3711c0.58203 0.58594 1.5312 0.58984 2.1172 0.007812s0.58984-1.5312 0.007813-2.1172l-2.375-2.375c4.8828-4.4141 11.25-7.2188 18.266-7.5703v3.9062c0 0.82812 0.67188 1.5 1.5 1.5 0.82813 0 1.5-0.67188 1.5-1.5v-3.9062c7.0117 0.35156 13.383 3.1562 18.266 7.5703l-2.375 2.375c-0.58203 0.58594-0.57813 1.5312 0.007812 2.1172 0.58594 0.58203 1.5312 0.57812 2.1172-0.007812l2.3672-2.3711c4.4141 4.8828 7.2148 11.25 7.5664 18.262h-3.9062c-0.82812 0-1.5 0.67188-1.5 1.5 0 0.82813 0.67188 1.5 1.5 1.5h3.9062c-0.35156 7.0117-3.1562 13.383-7.5703 18.262l-2.375-2.3711c-0.58594-0.58203-1.5312-0.57813-2.1172 0.007812-0.58203 0.58594-0.57812 1.5312 0.007813 2.1172zm-29.043-73.961v2.6797c0 0.29297 0.10938 0.5625 0.31641 0.79297 0.23438 0.23438 0.52344 0.36328 0.83984 0.36328h20.988c0.31641 0 0.60547-0.13281 0.81641-0.33984 0.21094-0.20703 0.33984-0.49609 0.33984-0.81641v-2.6797c0-0.31641-0.13281-0.60547-0.33984-0.81641-0.20703-0.21094-0.49609-0.33984-0.81641-0.33984h-20.988c-0.31641 0-0.60547 0.13281-0.8125 0.33984-0.21094 0.20703-0.33984 0.49609-0.33984 0.81641zm11.652 21.965c-8.9688 0-17.094 3.6367-22.969 9.5156-5.8789 5.8789-9.5156 14-9.5156 22.969s3.6367 17.094 9.5156 22.969c5.8789 5.8789 14 9.5156 22.969 9.5156s17.094-3.6367 22.969-9.5156c5.8789-5.8789 9.5156-14 9.5156-22.969s-3.6367-17.094-9.5156-22.969c-5.8789-5.8789-14-9.5156-22.969-9.5156z"/></svg>