<svg xmlns:dc="http://purl.org/dc/elements/1.1/" xmlns:cc="http://creativecommons.org/ns#" xmlns:rdf="http://www.w3.org/1999/02/22-rdf-syntax-ns#" xmlns:svg="http://www.w3.org/2000/svg" xmlns="http://www.w3.org/2000/svg" xmlns:sodipodi="http://sodipodi.sourceforge.net/DTD/sodipodi-0.dtd" xmlns:inkscape="http://www.inkscape.org/namespaces/inkscape" fill="##a1a1aa" version="1.1" x="0px" y="0px" viewBox="0 0 100 100"><path style="font-size:medium;font-style:normal;font-variant:normal;font-weight:normal;font-stretch:normal;text-indent:0;text-align:start;text-decoration:none;line-height:normal;letter-spacing:normal;word-spacing:normal;text-transform:none;direction:ltr;block-progression:tb;writing-mode:lr-tb;text-anchor:start;baseline-shift:baseline;opacity:1;color:#a1a1aa;fill:#a1a1aa;fill-opacity:1;stroke:none;stroke-width:4;marker:none;visibility:visible;display:inline;overflow:visible;enable-background:accumulate;font-family:Sans;-inkscape-font-specification:Sans" d="M 12 10 C 8.7105945 10 6 12.710594 6 16 L 6 84 C 6 87.289406 8.7105945 90 12 90 L 88 90 C 91.289406 90 94 87.289406 94 84 L 94 52 C 94 48.710594 91.289406 46 88 46 L 56 46 A 2.0002 2.0002 0 1 0 56 50 L 80 50 L 80 86 L 49.4375 86 C 49.677764 85.350271 50 84.728316 50 84 L 50 16 C 50 12.710594 47.289406 10 44 10 L 12 10 z M 57.8125 10 A 2.0021961 2.0021961 0 1 0 58 14 C 70.061982 14 79.989915 22.816597 81.71875 34.375 L 78 32.25 A 2.0155644 2.0155644 0 0 0 76 35.75 L 83 39.75 A 2.0002 2.0002 0 0 0 85.75 39 L 89.75 32 A 2.0002 2.0002 0 0 0 88.03125 28.96875 A 2.0002 2.0002 0 0 0 86.25 30 L 85.28125 31.6875 C 82.420709 19.261111 71.279509 10 58 10 A 2.0002 2.0002 0 0 0 57.8125 10 z M 12 14 L 44 14 C 45.142594 14 46 14.857406 46 16 L 46 17 L 10 17 L 10 16 C 10 14.857406 10.857406 14 12 14 z M 10 21 L 46 21 L 46 72 L 10 72 L 10 21 z M 84 50 L 88 50 C 89.142594 50 90 50.857406 90 52 L 90 84 C 90 85.142594 89.142594 86 88 86 L 84 86 L 84 50 z M 10 76 L 46 76 L 46 84 C 46 84.823783 45.544831 85.493539 44.875 85.8125 A 2.0002 2.0002 0 0 0 44.53125 86 L 12 86 C 10.857406 86 10 85.142594 10 84 L 10 76 z M 24.75 79 A 2.0029885 2.0029885 0 1 0 24.96875 83 L 31.03125 83 A 2.0002 2.0002 0 1 0 31.03125 79 L 24.96875 79 A 2.0002 2.0002 0 0 0 24.75 79 z "/></svg>